PathFileType	4	(X/Y/Z)	5_1_tpose_p1_0-234.trc
DataRate	CameraRate	NumFrames	NumMarkers	Units	OrigDataRate	OrigDataStartFrame	OrigNumFrames
60.0	60.0	6	27	m	60.0	29	235
Frame#	Time	RHip			RKnee			RAnkle			RBigToe			RSmallToe			RHeel			LHip			LKnee			LAnkle			LBigToe			LSmallToe			LHeel			Neck			Head			Nose			RShoulder			RElbow			RWrist			RThumb			RIndex			RPinky			LShoulder			LElbow			LWrist			LThumb			LIndex			LPinky			
		X1	Y1	Z1	X2	Y2	Z2	X3	Y3	Z3	X4	Y4	Z4	X5	Y5	Z5	X6	Y6	Z6	X7	Y7	Z7	X8	Y8	Z8	X9	Y9	Z9	X10	Y10	Z10	X11	Y11	Z11	X12	Y12	Z12	X13	Y13	Z13	X14	Y14	Z14	X15	Y15	Z15	X16	Y16	Z16	X17	Y17	Z17	X18	Y18	Z18	X19	Y19	Z19	X20	Y20	Z20	X21	Y21	Z21	X22	Y22	Z22	X23	Y23	Z23	X24	Y24	Z24	X25	Y25	Z25	X26	Y26	Z26	X27	Y27	Z27	
29	0.48333333333333334	0.36206893490769476	0.5171768733005622	0.8017302725226896	0.3859306024648075	0.6098629891854995	1.2273785065565106	0.36923816132791076	0.7095548271867548	1.6862495607907013	0.3811337905971321	0.5602312639408642	1.676006683990327	0.43440565892948424	0.5817776498147904	1.6781875836274172	0.34254980935821805	0.7905577874755547	1.741916240883439	0.13819274814978993	0.4907675901501331	0.8208180129995708	0.16056665597561054	0.5859869540537851	1.264598262522461	0.13458128826322996	0.6928819449903507	1.6845522038659881	0.24474931402646447	0.5787259575876146	1.718097653793709	0.16258954717378454	0.5596968127067661	1.7159681651706893	0.1122584405321929	0.754250599720219	1.7485623480256467	0.22944091557899224	0.40980747169647763	0.29667035862473784	0.24446080306284634	0.30695939116485316	0.0643298030568559	0.24644099855508808	0.2589675446304651	0.19831052855636358	0.406534052974618	0.4150697501641739	0.3279254876636478	0.647338427024956	0.43723292977873	0.2751012983970098	0.8563571883221782	0.45264476768239137	0.22402204682431046	0.995309279759592	0.4655178047330515	0.21740738764602896	1.0173580030502076	0.4580051828363962	0.20899868485236311	0.98782421448446	0.48672052158158896	0.21814712549034665	0.08212907987085785	0.38490736975079726	0.3332439660575233	-0.16889064519468905	0.42244975081440905	0.29301398809228835	-0.4025030393176877	0.39190975732333894	0.2656250615929756	-0.5054419496278456	0.3404591230553546	0.28298539382378524	-0.5278852752013705	0.363036736967119	0.245220123784343	-0.526506704418807	0.3851931965587487	0.24449675198372572
30	0.5	0.3619555934415805	0.517295544787642	0.8013634374196821	0.38586590269573573	0.609444908387581	1.226854817645848	0.3671865104313536	0.7080819549537615	1.6770103537194283	0.36669273747367037	0.5358775236115773	1.6664015393076772	0.4163295727809204	0.5905108039842224	1.6788804840682807	0.3490081585718228	0.8122386498682476	1.7453065758586326	0.13983285264002188	0.5042420011787317	0.8217387411908086	0.15410170706051937	0.5985050260067827	1.2603473963851912	0.13167319778699252	0.7091649402825434	1.6868760812889274	0.1939083084429755	0.6152785404501283	1.7336271153807008	0.14039026341617103	0.5825514985445643	1.7114015989033053	0.11841468900074424	0.7683479755036252	1.7404497994468038	0.22940811442990722	0.40988497095230714	0.2966399615226489	0.24455100931142057	0.30682159633313194	0.0643304449029336	0.2464161171772084	0.2589829125804762	0.19832467004113563	0.40164070828557297	0.4277386885812423	0.32798643464708593	0.6472846346605245	0.436065141399562	0.2717218721784899	0.856395119145788	0.4524519656142888	0.22409749151825872	0.995361849446828	0.4650127638981182	0.2177551951180732	1.0172997896609337	0.4568762434113783	0.20910293149808312	0.9837514174010549	0.49080907327707607	0.21884138059552105	0.08212073974115618	0.384764805479241	0.33324905687406137	-0.16898169556809906	0.4095495620918752	0.29020528145463165	-0.4102052376275738	0.40286634456433873	0.26548371380647307	-0.5059473193896463	0.3426984080958518	0.29029161292169475	-0.5277724274165513	0.3628214462733748	0.24559788198389085	-0.5263856156019242	0.3868565517375522	0.24853129529790258
31	0.5166666666666667	0.36200717574659125	0.5172532244243923	0.8015650589193278	0.38581414845778206	0.6095919117247816	1.2269510887416382	0.3672721073744369	0.7081858720259242	1.677086812512372	0.36796639894232797	0.5387214485225371	1.674736359558011	0.4148213629513821	0.5942079315715397	1.6908594828872556	0.3489778766300389	0.8121577265409821	1.7454784339643008	0.13976662995320346	0.5042384190666847	0.8221643235676247	0.16018755720441538	0.5852045136500194	1.2561962113412122	0.1378687731893562	0.6949461799423392	1.6850631355687138	0.20689339381838512	0.6182052994574472	1.732938595724108	0.14052172732344578	0.5825046847043807	1.7110631004598778	0.12605132798573043	0.7525833802220483	1.7336312427768092	0.22943123026763268	0.40989799491467394	0.2966493496029657	0.24451211728459368	0.3069811042611094	0.0643118203473112	0.24646044225852426	0.25897098153724923	0.19829326196441355	0.4065280676747626	0.41506908647957724	0.3278561216184884	0.6474268697633051	0.43677001340239585	0.27499163651612374	0.8565055271127141	0.45222089767092877	0.22405349190658552	1.0017690441452711	0.4495321731892484	0.21768213333827358	1.02366933653266	0.44312237622627476	0.20937222121365692	0.9886290517253238	0.48838319260627544	0.22332371539877985	0.08211709664394844	0.38480608821869944	0.3332798919703919	-0.16876538037043476	0.42344608543496803	0.2929179913874986	-0.41016800394287084	0.40293837533589	0.26550708491963715	-0.5053010914500065	0.3420906329865853	0.2902674963334906	-0.5276974824298778	0.362787339897165	0.24551061854172626	-0.5172769999207972	0.3917071772049703	0.2436434091768265
32	0.5333333333333333	0.36198094673837233	0.517286818335546	0.8015079861002553	0.3865006462137824	0.6084731497396434	1.2302674371988553	0.36904361159847754	0.7052848115910286	1.675137261356682	0.3600617014987636	0.5548344370887439	1.6839324888239788	0.4078041225110582	0.6080966735101639	1.6918573521583846	0.34969795867648923	0.8107684785350161	1.748181150386182	0.13981232169028845	0.5040727594118196	0.8217994488618346	0.16041997603718658	0.5813199500419128	1.2541664739104004	0.13877707855026333	0.6940449897802792	1.6790108978831968	0.19835972455661297	0.6333357756336533	1.7393422025550787	0.12440855580525022	0.6100750128548545	1.7181936746449642	0.1285168306157972	0.7495523663173208	1.7224290078943627	0.22946742497661274	0.4098130477398886	0.29663139955579576	0.2445307200857173	0.3071621415655342	0.06421390528741776	0.24638489605969507	0.25902386525346804	0.1982424025194381	0.40649617549229206	0.41505975903417464	0.3277868078084197	0.6474455498974417	0.4365853338687245	0.27497316356767904	0.8595204290746903	0.43821792357364714	0.22440501062776555	1.0058362723550167	0.4464820355414262	0.21717521141526192	1.0250728165405703	0.4344806478029604	0.20977862094314573	0.985439155857486	0.47493705976422695	0.2290396722502277	0.08343575937512844	0.39691776852339467	0.3326468737523501	-0.16530816328123357	0.41299003263969325	0.2897256831615682	-0.4101898502339191	0.40286887250186604	0.2656101450116987	-0.5134034479838742	0.3542816616651847	0.2911196421765778	-0.5279818889500366	0.36304370138933245	0.24551480672163745	-0.5264897724765463	0.3851906829254581	0.2413459121841904
33	0.55	0.3619932581085602	0.5172213751342889	0.8015133073146654	0.38651858667480976	0.6084234445588924	1.230342362175415	0.36895590866972183	0.705517336618049	1.6753216174898706	0.36613974140514527	0.5423953880629819	1.6768566250968637	0.4152305120942516	0.5921466643874268	1.680639416763835	0.3495582881705287	0.8109606346509192	1.7480639648696779	0.13979702611917594	0.504176035194807	0.821807098483732	0.16017774197541196	0.5853582665117486	1.264043135878614	0.1343493770754432	0.693231795367461	1.6845736918123573	0.2204965757062596	0.6208789033992668	1.7315681896163506	0.15154567611399655	0.5713347734255001	1.713406175236093	0.11792013137758839	0.7682857163964656	1.7403852548425125	0.22919954493107209	0.4081595261204917	0.29315131911056463	0.2445504911179247	0.30718712121497005	0.06419770930470622	0.24827253176771596	0.2695728162984023	0.1973005549350787	0.40658486573877817	0.4150285480761838	0.3279622738613473	0.6475339886536993	0.43635095352407743	0.274968131405505	0.8634499652856924	0.43821210499343133	0.224035492884589	1.0088247823840442	0.4358435395492506	0.22120148791690789	1.0265465131270672	0.4352840234961761	0.21430413619305655	0.9887946627307727	0.4481597458799072	0.23488866969748198	0.08347105530122777	0.3969724236270556	0.3327066435943626	-0.16879344323110185	0.4234712279844794	0.29294290877971724	-0.4101523076790563	0.40285945431306425	0.26563299064149654	-0.5062093330091902	0.3448436354670632	0.2935647299273709	-0.5281646767077603	0.36287687559987997	0.2421297854184995	-0.5268505221220818	0.38714320197524765	0.24840181896238367
34	0.5666666666666667	0.3619434267519679	0.5173089391514734	0.8013752966012981	0.38649035686770566	0.6085645633442203	1.2305327485871527	0.36991367973900774	0.7040540743408763	1.6784328252903635	0.36889375319874995	0.5605954477970826	1.6823734342620467	0.41156649300272624	0.5952119805906626	1.6815820361149736	0.3497583809972555	0.8103552633818248	1.7475845314648644	0.1392637296971305	0.5049735707846011	0.8182890084895108	0.16127016596470775	0.5845100900179543	1.2598412837685207	0.13547759978151505	0.6919315750081712	1.67864402815367	0.2119289624423966	0.6357591202370138	1.7387307454399419	0.14427447878840222	0.5848827567610795	1.714010304692394	0.12422281037739141	0.7338905792150863	1.7223431842945098	0.22920406567274534	0.4081732718105052	0.2931565815597218	0.2445387562365563	0.30719287574029175	0.06410214354928905	0.2463827970765971	0.25903694707441294	0.19828356448884418	0.401710005802129	0.4278383590358514	0.3280642968798493	0.6512940767251479	0.42220386893104334	0.2718086938906618	0.8597817528122583	0.43796119441627596	0.22444105068960415	1.0046387733654867	0.440793168475079	0.2215369662996184	1.0287839816796978	0.42600934086707254	0.21867528166134442	0.9854020172403535	0.4526276588763462	0.2394122737872642	0.08351279730203909	0.396942272446157	0.3327245002214297	-0.16527693809429853	0.4269970493012207	0.29250283566019303	-0.40995918007298227	0.4026888268100493	0.2689475621064923	-0.5138405202080959	0.3548929778951912	0.2935297811755487	-0.5359517143489635	0.3747341678464411	0.24954516943425487	-0.5243108939204622	0.38935166408668653	0.24093664794665362
